<!-- 48x48 icon -->
<svg width="48" height="48" viewBox="0 0 48 48" xmlns="http://www.w3.org/2000/svg">
  <defs>
    <linearGradient id="bg48" x1="0%" y1="0%" x2="100%" y2="100%">
      <stop offset="0%" style="stop-color:#0f3460;stop-opacity:1" />
      <stop offset="100%" style="stop-color:#16213e;stop-opacity:1" />
    </linearGradient>
  </defs>
  <rect width="48" height="48" rx="9" fill="url(#bg48)"/>
  <circle cx="24" cy="24" r="14" fill="#ffffff"/>
  <path d="M24,12 L28,16 L26,21 L22,21 L20,16 Z" fill="#1a1a2e"/>
  <path d="M20,16 L16,18 L14,22 L18,25 L22,21 Z" fill="#1a1a2e" opacity="0.8"/>
  <path d="M28,16 L32,18 L34,22 L30,25 L26,21 Z" fill="#1a1a2e" opacity="0.8"/>
  <path d="M18,25 L16,29 L20,33 L24,32 L24,27 Z" fill="#1a1a2e" opacity="0.9"/>
  <path d="M30,25 L32,29 L28,33 L24,32 L24,27 Z" fill="#1a1a2e" opacity="0.9"/>
  <rect x="4" y="40" width="40" height="3" rx="1.5" fill="#e94560"/>
  <text x="24" y="45" font-family="Arial" font-size="5" font-weight="bold" fill="#ffffff" text-anchor="middle">2026</text>
</svg>
